<!--
  JobsPodBinaryBuilder-AppIcon.svg
  JobsPodBinaryBuilder

  Created by Jobs on 2026年8月18日，星期二.
-->
<svg xmlns="http://www.w3.org/2000/svg" viewBox="0 0 1024 1024">
  <defs>
    <linearGradient id="tile" x1="0" y1="0" x2="1" y2="1">
      <stop offset="0" stop-color="#075CFA"/>
      <stop offset="0.48" stop-color="#168EFA"/>
      <stop offset="1" stop-color="#7948F7"/>
    </linearGradient>
    <linearGradient id="shine" x1="0" y1="0" x2="0" y2="1">
      <stop offset="0" stop-color="#FFFFFF" stop-opacity="0.22"/>
      <stop offset="1" stop-color="#FFFFFF" stop-opacity="0"/>
    </linearGradient>
    <filter id="shadow" x="-20%" y="-20%" width="140%" height="150%">
      <feDropShadow dx="0" dy="28" stdDeviation="30" flood-color="#06152F" flood-opacity="0.32"/>
    </filter>
    <clipPath id="tileClip">
      <rect x="72" y="72" width="880" height="880" rx="205"/>
    </clipPath>
  </defs>

  <rect x="72" y="72" width="880" height="880" rx="205" fill="url(#tile)" filter="url(#shadow)"/>
  <g clip-path="url(#tileClip)">
    <ellipse cx="360" cy="220" rx="520" ry="410" fill="url(#shine)"/>
    <circle cx="512" cy="490" r="324" fill="#FFFFFF" fill-opacity="0.075"/>
  </g>
  <rect x="83" y="83" width="858" height="858" rx="194" fill="none" stroke="#FFFFFF" stroke-opacity="0.18" stroke-width="6"/>

  <g transform="translate(236 188) scale(0.54)" fill="#FFFFFF">
    <path d="M966.208 246.752L534.144 21.408a47.968 47.968 0 0 0-44.128-0.128L58.08 243.136A47.968 47.968 0 0 0 32 285.824V744.64c0 18.208 10.304 34.848 26.592 42.976l432 215.36a48 48 0 0 0 42.816 0l432-215.36A48 48 0 0 0 992 744.672V289.344c0-17.92-9.952-34.304-25.792-42.592zM508.384 463.68l-162.176-79.808 367.36-196.704 158.4 82.624-363.584 193.888z m3.488-381.696l132.992 69.376-369.312 197.76-144.896-71.328 381.216-195.808zM96 332.096l153.216 75.392v168.256a32 32 0 0 0 64 0v-136.736L480 521.024v405.184L96 734.752V332.096z m448 594.112V517.184l384-204.736v422.304l-384 191.456z"/>
  </g>

  <g>
    <rect x="650" y="706" width="220" height="132" rx="66" fill="#07172F" fill-opacity="0.82"/>
    <rect x="654" y="710" width="212" height="124" rx="62" fill="none" stroke="#FFFFFF" stroke-opacity="0.32" stroke-width="4"/>
    <text x="760" y="796" text-anchor="middle" fill="#FFFFFF" font-family="SF Mono, Menlo, monospace" font-size="68" font-weight="700" letter-spacing="4">01</text>
  </g>
</svg>
